# xmcd
#
# Track frame offsets:
#	150
#	12791
#	27479
#	40043
#	53001
#	69288
#	86741
#	99872
#	117262
#	127755
#	142663
#	152882
#
# Disc length: 2281 seconds
#
# Revision: 1
# Processed by: cddbd v1.5.2PL0 Copyright (c) Steve Scherf et al.
# Submitted via: audiograbber 1.83.01
#
DISCID=8708e70c
DTITLE=Dolly Parton - Covered By Dolly
DYEAR=2006
DGENRE=Country
TTITLE0=Help!
TTITLE1=Harper Valley PTA
TTITLE2=In The Ghetto
TTITLE3=I Can't Help Myself (Sugar Pie Honey Bunch)
TTITLE4=I Walk The Line
TTITLE5=Save The Last Dance For Me
TTITLE6=Higher And Higher
TTITLE7=Great Balls Of Fire
TTITLE8=Games People Play
TTITLE9=Turn! Turn! Turn! (To Everything There Is A Season)(With Roger McGuinn)
TTITLE10=Release Me
TTITLE11=The House Of The Rising Sun
EXTD=
EXTT0=
EXTT1=
EXTT2=
EXTT3=
EXTT4=
EXTT5=
EXTT6=
EXTT7=
EXTT8=
EXTT9=
EXTT10=
EXTT11=
PLAYORDER=
